# xmcd
#
# Track frame offsets: 
#        183
#        12010
#        25823
#        42525
#        56005
#        71020
#        84775
#        95203
#        109873
#        122720
#        140823
#        154685
#        170030
#        189253
#        201865
#        212800
#        222718
#        235835
#        245398
#        258965
#        270040
#        281038
#
# Disc length: 3903 seconds
#
# Revision: 0
# Processed by: cddbd v1.5.2PL0 Copyright (c) Steve Scherf et al.
# Submitted via: ExactAudioCopy v0.95b3
#
DISCID=440f3d16
DTITLE=Waylon Jennings - The Best Of Waylon Jennings
DYEAR=1996
DGENRE=Country
TTITLE0=Ladies Love Outlaws
TTITLE1=Amanda
TTITLE2=Lonesome On'ry And Mean
TTITLE3=Are You Sure Hank Done It This Way
TTITLE4=Games People Play
TTITLE5=Good-Hearted Woman
TTITLE6=Ruby, Don't Take Your Love To Town
TTITLE7=No Regrets
TTITLE8=I'm A Ramblin' Man
TTITLE9=Suspicious Minds (duet with Jessie Colter)
TTITLE10=Honky Tonk Women
TTITLE11=Luckenbach, Texas (Back To The Basics)
TTITLE12=I've Always Been Crazy
TTITLE13=Mason Dixon Lines
TTITLE14=Only Daddy That'll Walk The Line
TTITLE15=Theme From The Dukes Of Hazzard (Good Ol' Boys)
TTITLE16=Just To Satisfy You (duet with Willie Nelson)
TTITLE17=Brown Eyed Handsome Man
TTITLE18=Don't You Think This Outlaw Bit's Done Got Out Of Hand
TTITLE19=This Time
TTITLE20=The Taker
TTITLE21=I Got You (duet with Anita Carter)
EXTD=
EXTT0=
EXTT1=
EXTT2=
EXTT3=
EXTT4=
EXTT5=
EXTT6=
EXTT7=
EXTT8=
EXTT9=
EXTT10=
EXTT11=
EXTT12=
EXTT13=
EXTT14=
EXTT15=
EXTT16=
EXTT17=
EXTT18=
EXTT19=
EXTT20=
EXTT21=
PLAYORDER=
